<svg width="402" height="353" viewBox="0 0 402 353" fill="none" xmlns="http://www.w3.org/2000/svg">
<path className="hexa" d="M54.1126 89.8309L165.513 24.4088L277.871 88.1738L278.828 217.361L167.427 282.783L55.0693 219.018L54.1126 89.8309Z" stroke="black" stroke-width="4"/>
<path className="hexa" d="M293.568 97.9597L294.956 227.143L183.774 292.937L71.2042 229.547L69.8159 100.364L180.998 34.5705L293.568 97.9597Z" stroke="black" stroke-width="4"/>


<path className="s_1" d="M14.068 341.438C11.716 341.438 9.556 341.09 7.588 340.394C5.644 339.698 4.072 338.678 2.872 337.334C1.672 335.966 1.012 334.286 0.892 332.294C0.844 331.478 0.976 330.578 1.288 329.594C1.6 328.61 2.032 327.638 2.584 326.678C3.16 325.694 3.832 324.818 4.6 324.05C5.392 323.258 6.232 322.658 7.12 322.25C7.192 322.202 7.3 322.166 7.444 322.142C7.612 322.118 7.732 322.106 7.804 322.106C7.948 322.106 8.02 322.142 8.02 322.214C8.02 322.334 7.84 322.526 7.48 322.79C6.472 323.582 5.644 324.494 4.996 325.526C4.324 326.558 3.82 327.662 3.484 328.838C3.148 330.014 2.98 331.202 2.98 332.402C2.98 333.818 3.28 335.042 3.88 336.074C4.504 337.082 5.332 337.91 6.364 338.558C7.396 339.23 8.572 339.722 9.892 340.034C11.212 340.346 12.592 340.502 14.032 340.502C15.64 340.502 17.224 340.322 18.784 339.962C20.368 339.602 21.808 339.086 23.104 338.414C25.096 337.358 26.668 336.05 27.82 334.49C28.996 332.93 29.584 331.382 29.584 329.846C29.584 329.03 29.404 328.25 29.044 327.506C28.708 326.762 28.156 326.09 27.388 325.49C26.812 325.034 26.104 324.602 25.264 324.194C24.448 323.786 23.572 323.39 22.636 323.006C21.724 322.622 20.824 322.238 19.936 321.854C19.048 321.446 18.268 321.014 17.596 320.558C16.636 319.91 15.928 319.214 15.472 318.47C15.04 317.726 14.824 316.982 14.824 316.238C14.824 315.35 15.076 314.486 15.58 313.646C16.108 312.806 16.816 312.05 17.704 311.378C18.616 310.682 19.636 310.142 20.764 309.758C21.748 309.422 22.816 309.158 23.968 308.966C25.144 308.774 26.296 308.678 27.424 308.678C28.36 308.678 29.248 308.75 30.088 308.894C30.952 309.014 31.708 309.242 32.356 309.578C33.172 309.962 33.796 310.478 34.228 311.126C34.66 311.75 34.876 312.41 34.876 313.106C34.876 314.066 34.444 314.906 33.58 315.626C33.268 315.866 32.92 316.094 32.536 316.31C32.152 316.502 31.696 316.67 31.168 316.814C31.072 316.838 30.964 316.85 30.844 316.85C30.556 316.85 30.412 316.766 30.412 316.598C30.412 316.502 30.484 316.406 30.628 316.31C30.796 316.19 31.036 316.118 31.348 316.094C32.068 315.998 32.608 315.722 32.968 315.266C33.352 314.81 33.544 314.282 33.544 313.682C33.544 313.058 33.328 312.446 32.896 311.846C32.488 311.222 31.852 310.706 30.988 310.298C30.124 309.866 29.02 309.65 27.676 309.65C26.908 309.65 26.056 309.734 25.12 309.902C24.208 310.07 23.212 310.346 22.132 310.73C20.812 311.186 19.708 311.858 18.82 312.746C17.956 313.634 17.524 314.582 17.524 315.59C17.524 316.214 17.728 316.85 18.136 317.498C18.568 318.122 19.252 318.722 20.188 319.298C20.98 319.778 21.88 320.258 22.888 320.738C23.896 321.194 24.916 321.662 25.948 322.142C26.98 322.598 27.916 323.09 28.756 323.618C30.076 324.434 31.024 325.31 31.6 326.246C32.176 327.182 32.464 328.142 32.464 329.126C32.464 330.278 32.116 331.442 31.42 332.618C30.748 333.77 29.86 334.862 28.756 335.894C27.652 336.902 26.44 337.802 25.12 338.594C23.584 339.506 21.844 340.202 19.9 340.682C17.98 341.186 16.036 341.438 14.068 341.438Z" fill="black"/>
<path className="sh_1" d="M254.068 341.438C251.716 341.438 249.556 341.09 247.588 340.394C245.644 339.698 244.072 338.678 242.872 337.334C241.672 335.966 241.012 334.286 240.892 332.294C240.844 331.478 240.976 330.578 241.288 329.594C241.6 328.61 242.032 327.638 242.584 326.678C243.16 325.694 243.832 324.818 244.6 324.05C245.392 323.258 246.232 322.658 247.12 322.25C247.192 322.202 247.3 322.166 247.444 322.142C247.612 322.118 247.732 322.106 247.804 322.106C247.948 322.106 248.02 322.142 248.02 322.214C248.02 322.334 247.84 322.526 247.48 322.79C246.472 323.582 245.644 324.494 244.996 325.526C244.324 326.558 243.82 327.662 243.484 328.838C243.148 330.014 242.98 331.202 242.98 332.402C242.98 333.818 243.28 335.042 243.88 336.074C244.504 337.082 245.332 337.91 246.364 338.558C247.396 339.23 248.572 339.722 249.892 340.034C251.212 340.346 252.592 340.502 254.032 340.502C255.64 340.502 257.224 340.322 258.784 339.962C260.368 339.602 261.808 339.086 263.104 338.414C265.096 337.358 266.668 336.05 267.82 334.49C268.996 332.93 269.584 331.382 269.584 329.846C269.584 329.03 269.404 328.25 269.044 327.506C268.708 326.762 268.156 326.09 267.388 325.49C266.812 325.034 266.104 324.602 265.264 324.194C264.448 323.786 263.572 323.39 262.636 323.006C261.724 322.622 260.824 322.238 259.936 321.854C259.048 321.446 258.268 321.014 257.596 320.558C256.636 319.91 255.928 319.214 255.472 318.47C255.04 317.726 254.824 316.982 254.824 316.238C254.824 315.35 255.076 314.486 255.58 313.646C256.108 312.806 256.816 312.05 257.704 311.378C258.616 310.682 259.636 310.142 260.764 309.758C261.748 309.422 262.816 309.158 263.968 308.966C265.144 308.774 266.296 308.678 267.424 308.678C268.36 308.678 269.248 308.75 270.088 308.894C270.952 309.014 271.708 309.242 272.356 309.578C273.172 309.962 273.796 310.478 274.228 311.126C274.66 311.75 274.876 312.41 274.876 313.106C274.876 314.066 274.444 314.906 273.58 315.626C273.268 315.866 272.92 316.094 272.536 316.31C272.152 316.502 271.696 316.67 271.168 316.814C271.072 316.838 270.964 316.85 270.844 316.85C270.556 316.85 270.412 316.766 270.412 316.598C270.412 316.502 270.484 316.406 270.628 316.31C270.796 316.19 271.036 316.118 271.348 316.094C272.068 315.998 272.608 315.722 272.968 315.266C273.352 314.81 273.544 314.282 273.544 313.682C273.544 313.058 273.328 312.446 272.896 311.846C272.488 311.222 271.852 310.706 270.988 310.298C270.124 309.866 269.02 309.65 267.676 309.65C266.908 309.65 266.056 309.734 265.12 309.902C264.208 310.07 263.212 310.346 262.132 310.73C260.812 311.186 259.708 311.858 258.82 312.746C257.956 313.634 257.524 314.582 257.524 315.59C257.524 316.214 257.728 316.85 258.136 317.498C258.568 318.122 259.252 318.722 260.188 319.298C260.98 319.778 261.88 320.258 262.888 320.738C263.896 321.194 264.916 321.662 265.948 322.142C266.98 322.598 267.916 323.09 268.756 323.618C270.076 324.434 271.024 325.31 271.6 326.246C272.176 327.182 272.464 328.142 272.464 329.126C272.464 330.278 272.116 331.442 271.42 332.618C270.748 333.77 269.86 334.862 268.756 335.894C267.652 336.902 266.44 337.802 265.12 338.594C263.584 339.506 261.844 340.202 259.9 340.682C257.98 341.186 256.036 341.438 254.068 341.438Z" fill="black"/>
<path className="sh_2" d="M270.56 338.414C271.568 336.35 272.612 334.19 273.692 331.934C274.796 329.654 275.924 327.362 277.076 325.058C278.228 322.754 279.368 320.558 280.496 318.47C280.904 317.75 281.276 317.186 281.612 316.778C281.972 316.37 282.44 316.166 283.016 316.166C283.232 316.166 283.484 316.202 283.772 316.274C284.06 316.346 284.336 316.358 284.6 316.31C284.288 316.646 283.856 317.234 283.304 318.074C282.776 318.914 282.176 319.922 281.504 321.098C280.856 322.274 280.16 323.546 279.416 324.914C278.696 326.258 277.976 327.626 277.256 329.018C276.56 330.386 275.912 331.67 275.312 332.87C275.792 332.246 276.284 331.658 276.788 331.106C277.292 330.554 277.784 330.074 278.264 329.666C278.792 329.186 279.452 328.682 280.244 328.154C281.06 327.626 281.864 327.17 282.656 326.786C283.472 326.402 284.12 326.21 284.6 326.21C284.768 326.21 284.888 326.222 284.96 326.246C284.96 326.246 284.828 326.486 284.564 326.966C284.3 327.446 283.964 328.058 283.556 328.802C283.172 329.546 282.764 330.35 282.332 331.214C281.924 332.078 281.564 332.906 281.252 333.698C280.94 334.466 280.736 335.102 280.64 335.606C280.568 335.99 280.532 336.314 280.532 336.578C280.532 336.962 280.604 337.226 280.748 337.37C280.892 337.49 281.048 337.55 281.216 337.55C281.624 337.55 282.068 337.298 282.548 336.794C283.028 336.29 283.496 335.678 283.952 334.958C284.408 334.214 284.816 333.494 285.176 332.798C285.56 332.102 285.848 331.562 286.04 331.178C286.184 330.914 286.328 330.782 286.472 330.782C286.616 330.782 286.688 330.878 286.688 331.07C286.688 331.166 286.652 331.31 286.58 331.502C286.268 332.126 285.908 332.834 285.5 333.626C285.116 334.394 284.672 335.138 284.168 335.858C283.688 336.554 283.148 337.13 282.548 337.586C281.972 338.042 281.348 338.27 280.676 338.27C280.196 338.27 279.704 338.102 279.2 337.766C278.696 337.43 278.444 336.818 278.444 335.93C278.444 335.666 278.468 335.39 278.516 335.102C278.564 334.79 278.648 334.442 278.768 334.058C278.912 333.578 279.152 333.05 279.488 332.474C279.824 331.874 280.256 331.13 280.784 330.242C281.024 329.834 281.144 329.51 281.144 329.27C281.144 328.982 281 328.838 280.712 328.838C280.472 328.838 280.148 328.958 279.74 329.198C279.332 329.438 278.816 329.858 278.192 330.458C277.592 331.034 276.848 331.874 275.96 332.978C275.072 334.082 274.124 335.63 273.116 337.622C272.948 337.934 272.756 338.102 272.54 338.126C272.348 338.126 272.084 338.138 271.748 338.162C271.532 338.186 271.316 338.198 271.1 338.198C270.884 338.222 270.704 338.294 270.56 338.414Z" fill="black"/>
<path className="sh_3" d="M296.792 338.234C296.528 338.258 296.228 338.198 295.892 338.054C295.556 337.91 295.256 337.646 294.992 337.262C294.752 336.878 294.632 336.338 294.632 335.642C294.632 335.066 294.74 334.37 294.956 333.554C294.668 334.01 294.296 334.574 293.84 335.246C293.384 335.894 292.892 336.47 292.364 336.974C291.908 337.406 291.476 337.718 291.068 337.91C290.66 338.102 290.288 338.198 289.952 338.198C289.328 338.198 288.824 337.922 288.44 337.37C288.056 336.794 287.864 336.05 287.864 335.138C287.864 334.178 288.104 333.086 288.584 331.862C289.064 330.638 289.844 329.366 290.924 328.046C291.62 327.206 292.46 326.534 293.444 326.03C294.452 325.502 295.436 325.238 296.396 325.238C296.948 325.238 297.476 325.334 297.98 325.526C298.484 325.694 298.928 325.982 299.312 326.39C299.48 326.558 299.564 326.75 299.564 326.966C299.564 327.11 299.504 327.23 299.384 327.326C299.264 327.422 299.108 327.446 298.916 327.398C298.652 326.558 298.088 326.138 297.224 326.138C296.816 326.138 296.348 326.27 295.82 326.534C295.004 326.966 294.152 327.674 293.264 328.658C292.4 329.642 291.644 330.662 290.996 331.718C290.9 331.862 290.744 332.138 290.528 332.546C290.336 332.954 290.144 333.41 289.952 333.914C289.76 334.418 289.628 334.91 289.556 335.39C289.532 335.534 289.52 335.642 289.52 335.714C289.52 335.762 289.52 335.846 289.52 335.966C289.52 336.758 289.82 337.154 290.42 337.154C291.14 337.154 291.956 336.626 292.868 335.57C293.492 334.802 294.056 333.998 294.56 333.158C295.064 332.318 295.58 331.418 296.108 330.458C296.468 329.81 296.804 329.27 297.116 328.838C297.428 328.406 297.872 328.19 298.448 328.19C298.712 328.19 298.976 328.226 299.24 328.298C299.504 328.37 299.78 328.382 300.068 328.334C299.876 328.526 299.612 328.886 299.276 329.414C298.964 329.942 298.628 330.542 298.268 331.214C297.908 331.886 297.584 332.57 297.296 333.266C297.008 333.962 296.804 334.562 296.684 335.066C296.66 335.21 296.624 335.414 296.576 335.678C296.552 335.942 296.54 336.134 296.54 336.254C296.54 336.926 296.732 337.262 297.116 337.262C297.5 337.262 297.908 337.034 298.34 336.578C298.796 336.122 299.24 335.558 299.672 334.886C300.104 334.214 300.5 333.542 300.86 332.87C301.22 332.174 301.508 331.61 301.724 331.178C301.82 330.938 301.964 330.818 302.156 330.818C302.276 330.818 302.336 330.902 302.336 331.07C302.336 331.142 302.3 331.274 302.228 331.466C301.94 332.066 301.592 332.75 301.184 333.518C300.776 334.262 300.332 334.994 299.852 335.714C299.372 336.41 298.868 336.998 298.34 337.478C297.836 337.934 297.32 338.186 296.792 338.234Z" fill="black"/>
<path className="sh_4" d="M307.048 323.51C306.688 323.51 306.388 323.39 306.148 323.15C305.932 322.886 305.824 322.574 305.824 322.214C305.824 321.758 306.004 321.362 306.364 321.026C306.724 320.69 307.12 320.522 307.552 320.522C307.936 320.522 308.248 320.642 308.488 320.882C308.728 321.122 308.848 321.41 308.848 321.746C308.848 322.202 308.668 322.61 308.308 322.97C307.948 323.33 307.528 323.51 307.048 323.51ZM304.132 338.126C303.244 338.126 302.62 337.874 302.26 337.37C301.9 336.842 301.72 336.242 301.72 335.57C301.72 335.21 301.756 334.85 301.828 334.49C301.924 334.106 302.032 333.758 302.152 333.446L304.564 327.29C304.636 327.098 304.672 326.93 304.672 326.786C304.672 326.546 304.612 326.342 304.492 326.174C304.372 325.982 304.288 325.85 304.24 325.778L306.22 325.706C306.58 325.682 306.832 325.73 306.976 325.85C307.144 325.946 307.228 326.066 307.228 326.21C307.228 326.354 307.144 326.618 306.976 327.002L303.988 334.022C303.988 334.022 303.916 334.178 303.772 334.49C303.652 334.778 303.58 334.97 303.556 335.066C303.484 335.426 303.436 335.654 303.412 335.75C303.388 335.846 303.376 335.906 303.376 335.93C303.376 335.954 303.376 336.05 303.376 336.218C303.376 336.53 303.448 336.794 303.592 337.01C303.76 337.226 304.036 337.334 304.42 337.334C304.66 337.334 304.936 337.262 305.248 337.118C305.56 336.974 305.788 336.83 305.932 336.686C306.532 336.062 307.12 335.246 307.696 334.238C308.296 333.206 308.848 332.186 309.352 331.178C309.448 330.938 309.568 330.818 309.712 330.818C309.832 330.818 309.892 330.902 309.892 331.07C309.892 331.166 309.856 331.31 309.784 331.502C309.544 332.006 309.244 332.63 308.884 333.374C308.524 334.118 308.092 334.862 307.588 335.606C307.108 336.326 306.58 336.926 306.004 337.406C305.428 337.886 304.804 338.126 304.132 338.126Z" fill="black"/>
<path className="s_2" d="M43.792 338.234C43.528 338.258 43.228 338.198 42.892 338.054C42.556 337.91 42.256 337.646 41.992 337.262C41.752 336.878 41.632 336.338 41.632 335.642C41.632 335.066 41.74 334.37 41.956 333.554C41.668 334.01 41.296 334.574 40.84 335.246C40.384 335.894 39.892 336.47 39.364 336.974C38.908 337.406 38.476 337.718 38.068 337.91C37.66 338.102 37.288 338.198 36.952 338.198C36.328 338.198 35.824 337.922 35.44 337.37C35.056 336.794 34.864 336.05 34.864 335.138C34.864 334.178 35.104 333.086 35.584 331.862C36.064 330.638 36.844 329.366 37.924 328.046C38.62 327.206 39.46 326.534 40.444 326.03C41.452 325.502 42.436 325.238 43.396 325.238C43.948 325.238 44.476 325.334 44.98 325.526C45.484 325.694 45.928 325.982 46.312 326.39C46.48 326.558 46.564 326.75 46.564 326.966C46.564 327.11 46.504 327.23 46.384 327.326C46.264 327.422 46.108 327.446 45.916 327.398C45.652 326.558 45.088 326.138 44.224 326.138C43.816 326.138 43.348 326.27 42.82 326.534C42.004 326.966 41.152 327.674 40.264 328.658C39.4 329.642 38.644 330.662 37.996 331.718C37.9 331.862 37.744 332.138 37.528 332.546C37.336 332.954 37.144 333.41 36.952 333.914C36.76 334.418 36.628 334.91 36.556 335.39C36.532 335.534 36.52 335.642 36.52 335.714C36.52 335.762 36.52 335.846 36.52 335.966C36.52 336.758 36.82 337.154 37.42 337.154C38.14 337.154 38.956 336.626 39.868 335.57C40.492 334.802 41.056 333.998 41.56 333.158C42.064 332.318 42.58 331.418 43.108 330.458C43.468 329.81 43.804 329.27 44.116 328.838C44.428 328.406 44.872 328.19 45.448 328.19C45.712 328.19 45.976 328.226 46.24 328.298C46.504 328.37 46.78 328.382 47.068 328.334C46.876 328.526 46.612 328.886 46.276 329.414C45.964 329.942 45.628 330.542 45.268 331.214C44.908 331.886 44.584 332.57 44.296 333.266C44.008 333.962 43.804 334.562 43.684 335.066C43.66 335.21 43.624 335.414 43.576 335.678C43.552 335.942 43.54 336.134 43.54 336.254C43.54 336.926 43.732 337.262 44.116 337.262C44.5 337.262 44.908 337.034 45.34 336.578C45.796 336.122 46.24 335.558 46.672 334.886C47.104 334.214 47.5 333.542 47.86 332.87C48.22 332.174 48.508 331.61 48.724 331.178C48.82 330.938 48.964 330.818 49.156 330.818C49.276 330.818 49.336 330.902 49.336 331.07C49.336 331.142 49.3 331.274 49.228 331.466C48.94 332.066 48.592 332.75 48.184 333.518C47.776 334.262 47.332 334.994 46.852 335.714C46.372 336.41 45.868 336.998 45.34 337.478C44.836 337.934 44.32 338.186 43.792 338.234Z" fill="black"/>

<path className="letter_s1" d="M108.948 163.087L107.983 164.839L107.99 164.843L107.997 164.847L108.948 163.087ZM104.59 160.182L105.808 158.595L103.676 156.958L102.721 159.47L104.59 160.182ZM103.137 164V166H104.516L105.007 164.711L103.137 164ZM89.7314 164H87.7314V166H89.7314V164ZM89.7314 143.788V141.788H87.7314V143.788H89.7314ZM103.054 143.788L104.931 143.095L104.448 141.788H103.054V143.788ZM106.997 148.727L106.037 150.481L106.054 150.49L106.07 150.499L106.997 148.727ZM117.705 149.183L118.684 150.927L118.7 150.918L118.715 150.909L117.705 149.183ZM117.664 143.539L116.641 145.257L116.656 145.266L116.671 145.275L117.664 143.539ZM112.766 141.629L113.299 139.702L113.291 139.7L113.284 139.698L112.766 141.629ZM105.461 139.347L104.764 141.221L104.772 141.224L105.461 139.347ZM90.8105 106.351L92.5499 107.338L92.5529 107.333L90.8105 106.351ZM98.1982 99.2539L99.1291 101.024L99.1347 101.021L98.1982 99.2539ZM122.271 101.786L120.792 103.132L122.686 105.213L124.028 102.739L122.271 101.786ZM124.387 97.8843V95.8843H123.197L122.629 96.9305L124.387 97.8843ZM136.299 97.8843H138.299V95.8843H136.299V97.8843ZM136.299 117.682V119.682H138.299V117.682H136.299ZM123.557 117.682L121.753 118.544L122.296 119.682H123.557V117.682ZM109.238 112.079L110.306 113.77L110.322 113.76L110.338 113.749L109.238 112.079ZM109.944 117.889L110.811 116.087L110.792 116.078L110.771 116.068L109.944 117.889ZM116.335 119.881L116.781 117.932L116.773 117.93L116.765 117.928L116.335 119.881ZM128.87 124.073L129.752 122.279L129.744 122.274L129.736 122.27L128.87 124.073ZM137.087 131.253L135.419 132.356L135.424 132.365L135.43 132.373L137.087 131.253ZM137.627 154.371L139.401 155.295L139.407 155.283L137.627 154.371ZM130.198 162.298L129.164 160.586L129.158 160.59L130.198 162.298ZM119.241 163.204C117.06 163.204 115.267 163.043 113.835 162.747L113.025 166.664C114.803 167.032 116.884 167.204 119.241 167.204V163.204ZM113.835 162.747C112.413 162.453 111.103 161.978 109.898 161.327L107.997 164.847C109.559 165.69 111.238 166.294 113.025 166.664L113.835 162.747ZM109.913 161.335C108.665 160.648 107.297 159.739 105.808 158.595L103.372 161.768C104.982 163.004 106.519 164.032 107.983 164.839L109.913 161.335ZM102.721 159.47L101.268 163.289L105.007 164.711L106.459 160.893L102.721 159.47ZM103.137 162H89.7314V166H103.137V162ZM91.7314 164V143.788H87.7314V164H91.7314ZM89.7314 145.788H103.054V141.788H89.7314V145.788ZM101.178 144.48C102.163 147.15 103.752 149.232 106.037 150.481L107.957 146.972C106.7 146.285 105.661 145.074 104.931 143.095L101.178 144.48ZM106.07 150.499C108.224 151.625 110.761 152.138 113.596 152.138V148.138C111.23 148.138 109.367 147.709 107.924 146.954L106.07 150.499ZM113.596 152.138C115.464 152.138 117.188 151.766 118.684 150.927L116.727 147.439C115.953 147.873 114.938 148.138 113.596 148.138V152.138ZM118.715 150.909C120.306 149.978 121.407 148.522 121.407 146.568H117.407C117.407 146.773 117.373 147.06 116.695 147.457L118.715 150.909ZM121.407 146.568C121.407 144.506 120.451 142.828 118.656 141.802L116.671 145.275C117.2 145.577 117.407 145.919 117.407 146.568H121.407ZM118.687 141.82C117.307 140.999 115.482 140.305 113.299 139.702L112.233 143.557C114.256 144.116 115.696 144.695 116.641 145.257L118.687 141.82ZM113.284 139.698C110.647 138.991 108.271 138.247 106.151 137.469L104.772 141.224C107.024 142.051 109.517 142.829 112.248 143.561L113.284 139.698ZM106.158 137.472C104.055 136.69 102.185 135.888 100.545 135.068L98.7565 138.645C100.547 139.541 102.552 140.399 104.764 141.221L106.158 137.472ZM100.545 135.068C97.4217 133.506 94.9216 131.303 93.0142 128.442L89.686 130.661C91.9843 134.109 95.018 136.776 98.7565 138.645L100.545 135.068ZM93.0142 128.442C91.199 125.719 90.1958 121.956 90.1958 116.976H86.1958C86.1958 122.455 87.2955 127.075 89.686 130.661L93.0142 128.442ZM90.1958 116.976C90.1958 113.262 90.9997 110.07 92.5499 107.338L89.0712 105.364C87.135 108.775 86.1958 112.666 86.1958 116.976H90.1958ZM92.5529 107.333C94.0719 104.638 96.2465 102.54 99.1291 101.024L97.2674 97.4837C93.7307 99.3435 90.9802 101.977 89.0682 105.369L92.5529 107.333ZM99.1347 101.021C102.033 99.4854 105.504 98.6807 109.612 98.6807V94.6807C104.976 94.6807 100.838 95.5914 97.2618 97.4867L99.1347 101.021ZM109.612 98.6807C114.488 98.6807 118.134 100.213 120.792 103.132L123.749 100.439C120.209 96.5516 115.416 94.6807 109.612 94.6807V98.6807ZM124.028 102.739L126.145 98.838L122.629 96.9305L120.513 100.832L124.028 102.739ZM124.387 99.8843H136.299V95.8843H124.387V99.8843ZM134.299 97.8843V117.682H138.299V97.8843H134.299ZM136.299 115.682H123.557V119.682H136.299V115.682ZM125.362 116.819C124.1 114.18 122.592 112.087 120.731 110.834L118.498 114.153C119.514 114.837 120.634 116.203 121.753 118.544L125.362 116.819ZM120.731 110.834C118.844 109.565 116.424 109.041 113.679 109.041V113.041C115.97 113.041 117.507 113.486 118.498 114.153L120.731 110.834ZM113.679 109.041C111.568 109.041 109.645 109.417 108.139 110.408L110.338 113.749C110.934 113.357 111.972 113.041 113.679 113.041V109.041ZM108.17 110.388C106.57 111.398 105.661 112.947 105.661 114.859H109.661C109.661 114.393 109.803 114.087 110.306 113.77L108.17 110.388ZM105.661 114.859C105.661 115.934 105.979 116.946 106.634 117.816C107.27 118.66 108.146 119.269 109.116 119.71L110.771 116.068C110.22 115.818 109.954 115.575 109.829 115.409C109.724 115.269 109.661 115.113 109.661 114.859H105.661ZM109.076 119.691C110.774 120.509 113.078 121.213 115.906 121.835L116.765 117.928C114.059 117.333 112.102 116.708 110.811 116.087L109.076 119.691ZM115.89 121.831C120.624 122.913 124.655 124.267 128.004 125.876L129.736 122.27C126.057 120.503 121.731 119.063 116.781 117.932L115.89 121.831ZM127.987 125.868C131.109 127.404 133.573 129.562 135.419 132.356L138.756 130.151C136.507 126.747 133.492 124.118 129.752 122.279L127.987 125.868ZM135.43 132.373C137.222 135.024 138.2 138.571 138.2 143.165H142.2C142.2 138.02 141.104 133.625 138.745 130.134L135.43 132.373ZM138.2 143.165C138.2 147.002 137.404 150.42 135.847 153.459L139.407 155.283C141.281 151.627 142.2 147.574 142.2 143.165H138.2ZM135.853 153.447C134.278 156.472 132.057 158.84 129.164 160.586L131.231 164.011C134.758 161.883 137.489 158.966 139.401 155.295L135.853 153.447ZM129.158 160.59C126.322 162.316 123.037 163.204 119.241 163.204V167.204C123.69 167.204 127.71 166.154 131.238 164.007L129.158 160.59Z" fill="black"/>
<path className="letter_s2" d="M228.948 221.087L227.983 222.839L227.99 222.843L227.997 222.847L228.948 221.087ZM224.59 218.182L225.808 216.595L223.676 214.958L222.721 217.47L224.59 218.182ZM223.137 222V224H224.516L225.007 222.711L223.137 222ZM209.731 222H207.731V224H209.731V222ZM209.731 201.788V199.788H207.731V201.788H209.731ZM223.054 201.788L224.931 201.095L224.448 199.788H223.054V201.788ZM226.997 206.727L226.037 208.481L226.054 208.49L226.07 208.499L226.997 206.727ZM237.705 207.183L238.684 208.927L238.7 208.918L238.715 208.909L237.705 207.183ZM237.664 201.539L236.641 203.257L236.656 203.266L236.671 203.275L237.664 201.539ZM232.766 199.629L233.299 197.702L233.291 197.7L233.284 197.698L232.766 199.629ZM225.461 197.347L224.764 199.221L224.772 199.224L225.461 197.347ZM210.811 164.351L212.55 165.338L212.553 165.333L210.811 164.351ZM218.198 157.254L219.129 159.024L219.135 159.021L218.198 157.254ZM242.271 159.786L240.792 161.132L242.686 163.213L244.028 160.739L242.271 159.786ZM244.387 155.884V153.884H243.197L242.629 154.931L244.387 155.884ZM256.299 155.884H258.299V153.884H256.299V155.884ZM256.299 175.682V177.682H258.299V175.682H256.299ZM243.557 175.682L241.753 176.544L242.296 177.682H243.557V175.682ZM229.238 170.079L230.306 171.77L230.322 171.76L230.338 171.749L229.238 170.079ZM229.944 175.889L230.811 174.087L230.792 174.078L230.771 174.068L229.944 175.889ZM236.335 177.881L236.781 175.932L236.773 175.93L236.765 175.928L236.335 177.881ZM248.87 182.073L249.752 180.279L249.744 180.274L249.736 180.27L248.87 182.073ZM257.087 189.253L255.419 190.356L255.424 190.365L255.43 190.373L257.087 189.253ZM257.627 212.371L259.401 213.295L259.407 213.283L257.627 212.371ZM250.198 220.298L249.164 218.586L249.158 218.59L250.198 220.298ZM239.241 221.204C237.06 221.204 235.267 221.043 233.835 220.747L233.025 224.664C234.803 225.032 236.884 225.204 239.241 225.204V221.204ZM233.835 220.747C232.413 220.453 231.103 219.978 229.898 219.327L227.997 222.847C229.559 223.69 231.238 224.294 233.025 224.664L233.835 220.747ZM229.913 219.335C228.665 218.648 227.297 217.739 225.808 216.595L223.372 219.768C224.982 221.004 226.519 222.032 227.983 222.839L229.913 219.335ZM222.721 217.47L221.268 221.289L225.007 222.711L226.459 218.893L222.721 217.47ZM223.137 220H209.731V224H223.137V220ZM211.731 222V201.788H207.731V222H211.731ZM209.731 203.788H223.054V199.788H209.731V203.788ZM221.178 202.48C222.163 205.15 223.752 207.232 226.037 208.481L227.957 204.972C226.7 204.285 225.661 203.074 224.931 201.095L221.178 202.48ZM226.07 208.499C228.224 209.625 230.761 210.138 233.596 210.138V206.138C231.23 206.138 229.367 205.709 227.924 204.954L226.07 208.499ZM233.596 210.138C235.464 210.138 237.188 209.766 238.684 208.927L236.727 205.439C235.953 205.873 234.938 206.138 233.596 206.138V210.138ZM238.715 208.909C240.306 207.978 241.407 206.522 241.407 204.568H237.407C237.407 204.773 237.373 205.06 236.695 205.457L238.715 208.909ZM241.407 204.568C241.407 202.506 240.451 200.828 238.656 199.802L236.671 203.275C237.2 203.577 237.407 203.919 237.407 204.568H241.407ZM238.687 199.82C237.307 198.999 235.482 198.305 233.299 197.702L232.233 201.557C234.256 202.116 235.696 202.695 236.641 203.257L238.687 199.82ZM233.284 197.698C230.647 196.991 228.271 196.247 226.151 195.469L224.772 199.224C227.024 200.051 229.517 200.829 232.248 201.561L233.284 197.698ZM226.158 195.472C224.055 194.69 222.185 193.888 220.545 193.068L218.756 196.645C220.547 197.541 222.552 198.399 224.764 199.221L226.158 195.472ZM220.545 193.068C217.422 191.506 214.922 189.303 213.014 186.442L209.686 188.661C211.984 192.109 215.018 194.776 218.756 196.645L220.545 193.068ZM213.014 186.442C211.199 183.719 210.196 179.956 210.196 174.976H206.196C206.196 180.455 207.296 185.075 209.686 188.661L213.014 186.442ZM210.196 174.976C210.196 171.262 211 168.07 212.55 165.338L209.071 163.364C207.135 166.775 206.196 170.666 206.196 174.976H210.196ZM212.553 165.333C214.072 162.638 216.247 160.54 219.129 159.024L217.267 155.484C213.731 157.344 210.98 159.977 209.068 163.369L212.553 165.333ZM219.135 159.021C222.033 157.485 225.504 156.681 229.612 156.681V152.681C224.976 152.681 220.838 153.591 217.262 155.487L219.135 159.021ZM229.612 156.681C234.488 156.681 238.134 158.213 240.792 161.132L243.749 158.439C240.209 154.552 235.416 152.681 229.612 152.681V156.681ZM244.028 160.739L246.145 156.838L242.629 154.931L240.513 158.832L244.028 160.739ZM244.387 157.884H256.299V153.884H244.387V157.884ZM254.299 155.884V175.682H258.299V155.884H254.299ZM256.299 173.682H243.557V177.682H256.299V173.682ZM245.362 174.819C244.1 172.18 242.592 170.087 240.731 168.834L238.498 172.153C239.514 172.837 240.634 174.203 241.753 176.544L245.362 174.819ZM240.731 168.834C238.844 167.565 236.424 167.041 233.679 167.041V171.041C235.97 171.041 237.507 171.486 238.498 172.153L240.731 168.834ZM233.679 167.041C231.568 167.041 229.645 167.417 228.139 168.408L230.338 171.749C230.934 171.357 231.972 171.041 233.679 171.041V167.041ZM228.17 168.388C226.57 169.398 225.661 170.947 225.661 172.859H229.661C229.661 172.393 229.803 172.087 230.306 171.77L228.17 168.388ZM225.661 172.859C225.661 173.934 225.979 174.946 226.634 175.816C227.27 176.66 228.146 177.269 229.116 177.71L230.771 174.068C230.22 173.818 229.954 173.575 229.829 173.409C229.724 173.269 229.661 173.113 229.661 172.859H225.661ZM229.076 177.691C230.774 178.509 233.078 179.213 235.906 179.835L236.765 175.928C234.059 175.333 232.102 174.708 230.811 174.087L229.076 177.691ZM235.89 179.831C240.624 180.913 244.655 182.267 248.004 183.876L249.736 180.27C246.057 178.503 241.731 177.063 236.781 175.932L235.89 179.831ZM247.987 183.868C251.109 185.404 253.573 187.562 255.419 190.356L258.756 188.151C256.507 184.747 253.492 182.118 249.752 180.279L247.987 183.868ZM255.43 190.373C257.222 193.024 258.2 196.571 258.2 201.165H262.2C262.2 196.02 261.104 191.625 258.745 188.134L255.43 190.373ZM258.2 201.165C258.2 205.002 257.404 208.42 255.847 211.459L259.407 213.283C261.281 209.627 262.2 205.574 262.2 201.165H258.2ZM255.853 211.447C254.278 214.472 252.057 216.84 249.164 218.586L251.231 222.011C254.758 219.883 257.489 216.966 259.401 213.295L255.853 211.447ZM249.158 218.59C246.322 220.316 243.037 221.204 239.241 221.204V225.204C243.69 225.204 247.71 224.154 251.238 222.007L249.158 218.59Z" fill="black"/>
<path className="letter_k" d="M175.844 195V197H177.844V195H175.844ZM141.354 195H139.354V197H141.354V195ZM141.354 180.391V178.391H139.354V180.391H141.354ZM147.995 180.391V182.391H149.995V180.391H147.995ZM147.995 143.577H149.995V141.577H147.995V143.577ZM141.354 143.577H139.354V145.577H141.354V143.577ZM141.354 128.967V126.967H139.354V128.967H141.354ZM174.516 128.967H176.516V126.967H174.516V128.967ZM174.516 143.577V145.577H176.516V143.577H174.516ZM169.245 143.577V141.577H167.245V143.577H169.245ZM169.245 158.601H167.245V164.738L170.861 159.78L169.245 158.601ZM180.202 143.577L181.818 144.755L182.202 144.228V143.577H180.202ZM180.202 128.967V126.967H178.202V128.967H180.202ZM206.059 128.967H208.059V126.967H206.059V128.967ZM206.059 143.577V145.577H208.059V143.577H206.059ZM200.331 143.577V141.577H199.387L198.787 142.305L200.331 143.577ZM187.174 159.556L185.63 158.284L185.174 158.838V159.556H187.174ZM187.174 160.137H185.174V162.137H187.174V160.137ZM197.716 162.461L196.676 164.169L196.683 164.173L196.69 164.178L197.716 162.461ZM202.24 179.436L200.608 180.592L200.636 180.631L200.665 180.669L202.24 179.436ZM209.005 180.391H211.005V178.391H209.005V180.391ZM209.005 195V197H211.005V195H209.005ZM178.5 170.886L176.831 171.988L176.836 171.996L176.841 172.003L178.5 170.886ZM169.245 168.811V166.811H167.245V168.811H169.245ZM169.245 180.391H167.245V182.391H169.245V180.391ZM175.844 180.391H177.844V178.391H175.844V180.391ZM175.844 193H141.354V197H175.844V193ZM143.354 195V180.391H139.354V195H143.354ZM141.354 182.391H147.995V178.391H141.354V182.391ZM149.995 180.391V143.577H145.995V180.391H149.995ZM147.995 141.577H141.354V145.577H147.995V141.577ZM143.354 143.577V128.967H139.354V143.577H143.354ZM141.354 130.967H174.516V126.967H141.354V130.967ZM172.516 128.967V143.577H176.516V128.967H172.516ZM174.516 141.577H169.245V145.577H174.516V141.577ZM167.245 143.577V158.601H171.245V143.577H167.245ZM170.861 159.78L181.818 144.755L178.586 142.398L167.629 157.423L170.861 159.78ZM182.202 143.577V128.967H178.202V143.577H182.202ZM180.202 130.967H206.059V126.967H180.202V130.967ZM204.059 128.967V143.577H208.059V128.967H204.059ZM206.059 141.577H200.331V145.577H206.059V141.577ZM198.787 142.305L185.63 158.284L188.718 160.827L201.875 144.848L198.787 142.305ZM185.174 159.556V160.137H189.174V159.556H185.174ZM187.174 162.137C191.462 162.137 194.564 162.884 196.676 164.169L198.756 160.753C195.777 158.939 191.852 158.137 187.174 158.137V162.137ZM196.69 164.178C198.461 165.236 199.535 167.118 199.535 170.43H203.535C203.535 166.16 202.063 162.729 198.743 160.744L196.69 164.178ZM199.535 170.43V177.153H203.535V170.43H199.535ZM199.535 177.153C199.535 178.401 199.885 179.571 200.608 180.592L203.872 178.28C203.655 177.973 203.535 177.621 203.535 177.153H199.535ZM200.665 180.669C201.568 181.823 202.845 182.391 204.274 182.391V178.391C203.988 178.391 203.908 178.322 203.815 178.203L200.665 180.669ZM204.274 182.391H209.005V178.391H204.274V182.391ZM207.005 180.391V195H211.005V180.391H207.005ZM209.005 193H193.815V197H209.005V193ZM193.815 193C189.432 193 186.519 191.995 184.705 190.338C182.926 188.712 181.87 186.148 181.87 182.258H177.87C177.87 186.863 179.138 190.67 182.007 193.291C184.842 195.881 188.901 197 193.815 197V193ZM181.87 182.258V175.037H177.87V182.258H181.87ZM181.87 175.037C181.87 173.167 181.258 171.401 180.159 169.769L176.841 172.003C177.568 173.083 177.87 174.084 177.87 175.037H181.87ZM180.169 169.785C179.022 168.047 177.394 166.811 175.263 166.811V170.811C175.621 170.811 176.152 170.959 176.831 171.988L180.169 169.785ZM175.263 166.811H169.245V170.811H175.263V166.811ZM167.245 168.811V180.391H171.245V168.811H167.245ZM169.245 182.391H175.844V178.391H169.245V182.391ZM173.844 180.391V195H177.844V180.391H173.844Z" fill="black"/>

<path className="s_7" d="M102.532 338.378C101.884 338.306 101.296 338.006 100.768 337.478C100.264 336.926 99.916 336.194 99.724 335.282C99.7 335.114 99.676 334.97 99.652 334.85C99.652 334.706 99.652 334.55 99.652 334.382C99.652 333.422 99.868 332.654 100.3 332.078C100.732 331.478 101.128 331.166 101.488 331.142C101.872 331.166 102.34 331.082 102.892 330.89C103.444 330.674 103.924 330.386 104.332 330.026C105.028 329.474 105.376 328.91 105.376 328.334C105.376 327.734 105.028 327.434 104.332 327.434C103.948 327.434 103.456 327.566 102.856 327.83C102.28 328.094 101.608 328.55 100.84 329.198C99.88 330.014 98.884 331.106 97.852 332.474C97.708 332.786 97.54 333.254 97.348 333.878C97.156 334.478 96.988 335.102 96.844 335.75C96.724 336.398 96.664 336.95 96.664 337.406C96.664 337.766 96.724 338.006 96.844 338.126H94.576C94.312 338.126 94.18 338.018 94.18 337.802C94.18 337.73 94.192 337.67 94.216 337.622C94.24 337.574 94.264 337.478 94.288 337.334C94.624 336.086 95.068 334.91 95.62 333.806C96.172 332.702 96.724 331.538 97.276 330.314C96.436 331.874 95.668 333.254 94.972 334.454C94.3 335.63 93.784 336.386 93.424 336.722C93.376 336.77 93.316 336.794 93.244 336.794C93.148 336.794 93.088 336.734 93.064 336.614C93.016 336.494 93.04 336.374 93.136 336.254C93.64 335.582 94.216 334.658 94.864 333.482C95.536 332.306 96.244 330.998 96.988 329.558C97.732 328.094 98.488 326.618 99.256 325.13C100.024 323.642 100.768 322.238 101.488 320.918C102.232 319.598 102.904 318.482 103.504 317.57C103.936 316.922 104.344 316.466 104.728 316.202C105.112 315.914 105.508 315.77 105.916 315.77H106.096C106.312 315.77 106.552 315.806 106.816 315.878C107.104 315.95 107.368 315.962 107.608 315.914C107.152 316.274 106.6 316.862 105.952 317.678C105.304 318.494 104.62 319.466 103.9 320.594C103.18 321.722 102.448 322.922 101.704 324.194C100.984 325.466 100.3 326.726 99.652 327.974C99.412 328.454 99.184 328.958 98.968 329.486C98.752 330.014 98.548 330.542 98.356 331.07C98.86 330.446 99.436 329.798 100.084 329.126C100.732 328.454 101.404 327.842 102.1 327.29C102.82 326.714 103.528 326.294 104.224 326.03C105.016 325.742 105.676 325.598 106.204 325.598C106.756 325.598 107.152 325.73 107.392 325.994C107.656 326.258 107.788 326.594 107.788 327.002C107.788 327.458 107.608 328.01 107.248 328.658C106.888 329.282 106.396 329.822 105.772 330.278C105.244 330.638 104.692 330.95 104.116 331.214C103.54 331.478 102.856 331.646 102.064 331.718C101.92 332.054 101.812 332.402 101.74 332.762C101.692 333.098 101.668 333.434 101.668 333.77C101.668 334.706 101.884 335.534 102.316 336.254C102.748 336.95 103.312 337.298 104.008 337.298C104.344 337.298 104.704 337.202 105.088 337.01C105.496 336.818 105.916 336.494 106.348 336.038C106.828 335.558 107.308 334.874 107.788 333.986C108.292 333.098 108.796 332.126 109.3 331.07C109.396 330.878 109.504 330.782 109.624 330.782C109.768 330.782 109.84 330.878 109.84 331.07C109.84 331.166 109.804 331.286 109.732 331.43C109.036 333.038 108.364 334.322 107.716 335.282C107.092 336.218 106.48 336.926 105.88 337.406C105.304 337.862 104.74 338.15 104.188 338.27C103.636 338.39 103.084 338.426 102.532 338.378Z" fill="black"/>
<path className="s_6" d="M92.792 338.234C92.528 338.258 92.228 338.198 91.892 338.054C91.556 337.91 91.256 337.646 90.992 337.262C90.752 336.878 90.632 336.338 90.632 335.642C90.632 335.066 90.74 334.37 90.956 333.554C90.668 334.01 90.296 334.574 89.84 335.246C89.384 335.894 88.892 336.47 88.364 336.974C87.908 337.406 87.476 337.718 87.068 337.91C86.66 338.102 86.288 338.198 85.952 338.198C85.328 338.198 84.824 337.922 84.44 337.37C84.056 336.794 83.864 336.05 83.864 335.138C83.864 334.178 84.104 333.086 84.584 331.862C85.064 330.638 85.844 329.366 86.924 328.046C87.62 327.206 88.46 326.534 89.444 326.03C90.452 325.502 91.436 325.238 92.396 325.238C92.948 325.238 93.476 325.334 93.98 325.526C94.484 325.694 94.928 325.982 95.312 326.39C95.48 326.558 95.564 326.75 95.564 326.966C95.564 327.11 95.504 327.23 95.384 327.326C95.264 327.422 95.108 327.446 94.916 327.398C94.652 326.558 94.088 326.138 93.224 326.138C92.816 326.138 92.348 326.27 91.82 326.534C91.004 326.966 90.152 327.674 89.264 328.658C88.4 329.642 87.644 330.662 86.996 331.718C86.9 331.862 86.744 332.138 86.528 332.546C86.336 332.954 86.144 333.41 85.952 333.914C85.76 334.418 85.628 334.91 85.556 335.39C85.532 335.534 85.52 335.642 85.52 335.714C85.52 335.762 85.52 335.846 85.52 335.966C85.52 336.758 85.82 337.154 86.42 337.154C87.14 337.154 87.956 336.626 88.868 335.57C89.492 334.802 90.056 333.998 90.56 333.158C91.064 332.318 91.58 331.418 92.108 330.458C92.468 329.81 92.804 329.27 93.116 328.838C93.428 328.406 93.872 328.19 94.448 328.19C94.712 328.19 94.976 328.226 95.24 328.298C95.504 328.37 95.78 328.382 96.068 328.334C95.876 328.526 95.612 328.886 95.276 329.414C94.964 329.942 94.628 330.542 94.268 331.214C93.908 331.886 93.584 332.57 93.296 333.266C93.008 333.962 92.804 334.562 92.684 335.066C92.66 335.21 92.624 335.414 92.576 335.678C92.552 335.942 92.54 336.134 92.54 336.254C92.54 336.926 92.732 337.262 93.116 337.262C93.5 337.262 93.908 337.034 94.34 336.578C94.796 336.122 95.24 335.558 95.672 334.886C96.104 334.214 96.5 333.542 96.86 332.87C97.22 332.174 97.508 331.61 97.724 331.178C97.82 330.938 97.964 330.818 98.156 330.818C98.276 330.818 98.336 330.902 98.336 331.07C98.336 331.142 98.3 331.274 98.228 331.466C97.94 332.066 97.592 332.75 97.184 333.518C96.776 334.262 96.332 334.994 95.852 335.714C95.372 336.41 94.868 336.998 94.34 337.478C93.836 337.934 93.32 338.186 92.792 338.234Z" fill="black"/>
<path className="s_3" d="M53.3 338.162C52.844 338.162 52.388 337.982 51.932 337.622C51.476 337.238 51.248 336.626 51.248 335.786C51.248 335.138 51.404 334.394 51.716 333.554C52.004 332.738 52.388 331.946 52.868 331.178C53.372 330.41 53.732 329.786 53.948 329.306C54.02 329.114 54.056 328.946 54.056 328.802C54.056 328.37 53.78 328.058 53.228 327.866C52.7 327.674 52.004 327.566 51.14 327.542L50.708 328.73C50.444 329.498 50.072 330.398 49.592 331.43C49.136 332.462 48.62 333.458 48.044 334.418C47.492 335.378 46.916 336.146 46.316 336.722C46.268 336.77 46.208 336.794 46.136 336.794C46.04 336.794 45.98 336.734 45.956 336.614C45.908 336.494 45.956 336.35 46.1 336.182C47.036 334.934 47.876 333.554 48.62 332.042C49.364 330.506 49.988 328.946 50.492 327.362C51.02 325.778 51.404 324.314 51.644 322.97C51.716 322.586 51.848 322.31 52.04 322.142C52.232 321.95 52.436 321.854 52.652 321.854C52.964 321.854 53.252 322.01 53.516 322.322C53.78 322.61 53.912 323.03 53.912 323.582C53.912 323.678 53.9 323.786 53.876 323.906C53.876 324.026 53.864 324.146 53.84 324.266C53.744 324.77 53.456 325.25 52.976 325.706C52.52 326.138 52.148 326.462 51.86 326.678C52.1 326.702 52.352 326.726 52.616 326.75C52.88 326.75 53.168 326.75 53.48 326.75C54.608 326.75 55.724 326.678 56.828 326.534C56.876 326.678 56.9 326.786 56.9 326.858C56.9 327.17 56.804 327.566 56.612 328.046C56.444 328.526 56.264 328.958 56.072 329.342C55.976 329.558 55.784 329.954 55.496 330.53C55.208 331.082 54.896 331.718 54.56 332.438C54.224 333.134 53.936 333.83 53.696 334.526C53.48 335.198 53.372 335.774 53.372 336.254C53.372 336.878 53.612 337.19 54.092 337.19C54.452 337.19 54.848 336.962 55.28 336.506C55.712 336.026 56.132 335.45 56.54 334.778C56.972 334.082 57.356 333.41 57.692 332.762C58.052 332.09 58.328 331.562 58.52 331.178C58.616 330.938 58.748 330.818 58.916 330.818C59.012 330.818 59.06 330.902 59.06 331.07C59.06 331.166 59.024 331.31 58.952 331.502C58.688 332.054 58.376 332.678 58.016 333.374C57.656 334.07 57.248 334.754 56.792 335.426C56.36 336.098 55.88 336.686 55.352 337.19C54.848 337.67 54.296 337.982 53.696 338.126C53.624 338.15 53.492 338.162 53.3 338.162Z" fill="black"/>
<path className="s_4" d="M61.78 338.126C61.108 338.126 60.508 337.898 59.98 337.442C59.452 336.962 59.188 336.218 59.188 335.21C59.188 334.418 59.332 333.446 59.62 332.294C59.932 331.118 60.304 329.906 60.736 328.658C61.192 327.386 61.636 326.234 62.068 325.202H60.16C59.992 325.202 59.908 325.082 59.908 324.842C59.908 324.722 59.932 324.614 59.98 324.518C60.052 324.422 60.148 324.374 60.268 324.374H62.428C62.836 323.462 63.268 322.574 63.724 321.71C64.18 320.846 64.624 320.03 65.056 319.262C65.608 318.302 66.196 317.582 66.82 317.102C67.444 316.622 67.984 316.382 68.44 316.382C68.8 316.382 69.1 316.526 69.34 316.814C69.58 317.078 69.7 317.486 69.7 318.038C69.7 318.374 69.628 318.842 69.484 319.442C69.34 320.018 69.112 320.63 68.8 321.278C68.632 321.614 68.392 322.094 68.08 322.718C67.792 323.342 67.504 323.894 67.216 324.374H68.944C69.112 324.374 69.196 324.494 69.196 324.734C69.196 324.83 69.172 324.938 69.124 325.058C69.076 325.154 69.004 325.202 68.908 325.202H66.784C66.184 326.234 65.5 327.242 64.732 328.226C63.964 329.21 63.052 330.194 61.996 331.178C61.924 331.394 61.828 331.706 61.708 332.114C61.612 332.522 61.516 332.942 61.42 333.374C61.348 333.782 61.276 334.13 61.204 334.418C61.156 334.706 61.132 334.85 61.132 334.85C61.06 335.162 61.024 335.45 61.024 335.714C61.024 336.218 61.144 336.59 61.384 336.83C61.624 337.046 61.9 337.154 62.212 337.154C62.404 337.154 62.596 337.13 62.788 337.082C62.98 337.01 63.196 336.89 63.436 336.722C64.276 336.122 65.008 335.306 65.632 334.274C66.28 333.242 66.844 332.246 67.324 331.286C67.468 330.998 67.612 330.854 67.756 330.854C67.852 330.854 67.9 330.926 67.9 331.07C67.9 331.142 67.864 331.274 67.792 331.466C67.264 332.57 66.82 333.458 66.46 334.13C66.1 334.802 65.752 335.366 65.416 335.822C65.08 336.254 64.684 336.686 64.228 337.118C63.892 337.454 63.508 337.706 63.076 337.874C62.644 338.042 62.212 338.126 61.78 338.126ZM64.624 324.374H66.46C66.796 323.75 67.108 323.138 67.396 322.538C67.708 321.938 67.984 321.338 68.224 320.738C68.392 320.354 68.536 319.922 68.656 319.442C68.776 318.962 68.836 318.59 68.836 318.326C68.836 317.966 68.752 317.786 68.584 317.786C68.464 317.786 68.284 317.894 68.044 318.11C67.828 318.302 67.552 318.638 67.216 319.118C66.784 319.718 66.352 320.498 65.92 321.458C65.512 322.394 65.08 323.366 64.624 324.374ZM62.284 330.026C62.98 329.306 63.628 328.538 64.228 327.722C64.852 326.906 65.428 326.066 65.956 325.202H64.264C63.88 326.09 63.52 326.954 63.184 327.794C62.848 328.634 62.548 329.378 62.284 330.026Z" fill="black"/>
<path className="s_5" d="M67.56 338.414C68.568 336.35 69.612 334.19 70.692 331.934C71.796 329.654 72.924 327.362 74.076 325.058C75.228 322.754 76.368 320.558 77.496 318.47C77.904 317.75 78.276 317.186 78.612 316.778C78.972 316.37 79.44 316.166 80.016 316.166C80.232 316.166 80.484 316.202 80.772 316.274C81.06 316.346 81.336 316.358 81.6 316.31C81.288 316.646 80.856 317.234 80.304 318.074C79.776 318.914 79.176 319.922 78.504 321.098C77.856 322.274 77.16 323.546 76.416 324.914C75.696 326.258 74.976 327.626 74.256 329.018C73.56 330.386 72.912 331.67 72.312 332.87C72.792 332.246 73.284 331.658 73.788 331.106C74.292 330.554 74.784 330.074 75.264 329.666C75.792 329.186 76.452 328.682 77.244 328.154C78.06 327.626 78.864 327.17 79.656 326.786C80.472 326.402 81.12 326.21 81.6 326.21C81.768 326.21 81.888 326.222 81.96 326.246C81.96 326.246 81.828 326.486 81.564 326.966C81.3 327.446 80.964 328.058 80.556 328.802C80.172 329.546 79.764 330.35 79.332 331.214C78.924 332.078 78.564 332.906 78.252 333.698C77.94 334.466 77.736 335.102 77.64 335.606C77.568 335.99 77.532 336.314 77.532 336.578C77.532 336.962 77.604 337.226 77.748 337.37C77.892 337.49 78.048 337.55 78.216 337.55C78.624 337.55 79.068 337.298 79.548 336.794C80.028 336.29 80.496 335.678 80.952 334.958C81.408 334.214 81.816 333.494 82.176 332.798C82.56 332.102 82.848 331.562 83.04 331.178C83.184 330.914 83.328 330.782 83.472 330.782C83.616 330.782 83.688 330.878 83.688 331.07C83.688 331.166 83.652 331.31 83.58 331.502C83.268 332.126 82.908 332.834 82.5 333.626C82.116 334.394 81.672 335.138 81.168 335.858C80.688 336.554 80.148 337.13 79.548 337.586C78.972 338.042 78.348 338.27 77.676 338.27C77.196 338.27 76.704 338.102 76.2 337.766C75.696 337.43 75.444 336.818 75.444 335.93C75.444 335.666 75.468 335.39 75.516 335.102C75.564 334.79 75.648 334.442 75.768 334.058C75.912 333.578 76.152 333.05 76.488 332.474C76.824 331.874 77.256 331.13 77.784 330.242C78.024 329.834 78.144 329.51 78.144 329.27C78.144 328.982 78 328.838 77.712 328.838C77.472 328.838 77.148 328.958 76.74 329.198C76.332 329.438 75.816 329.858 75.192 330.458C74.592 331.034 73.848 331.874 72.96 332.978C72.072 334.082 71.124 335.63 70.116 337.622C69.948 337.934 69.756 338.102 69.54 338.126C69.348 338.126 69.084 338.138 68.748 338.162C68.532 338.186 68.316 338.198 68.1 338.198C67.884 338.222 67.704 338.294 67.56 338.414Z" fill="black"/>
<path className="sh_5" d="M314.816 338.234C313.808 338.234 313.124 337.97 312.764 337.442C312.404 336.89 312.224 336.242 312.224 335.498C312.224 334.73 312.332 333.938 312.548 333.122C312.764 332.306 312.956 331.622 313.124 331.07C313.508 329.726 313.988 328.298 314.564 326.786C315.164 325.25 315.812 323.75 316.508 322.286C317.228 320.798 317.936 319.466 318.632 318.29C319.184 317.354 319.772 316.658 320.396 316.202C321.044 315.722 321.608 315.482 322.088 315.482C322.472 315.482 322.772 315.626 322.988 315.914C323.228 316.178 323.348 316.586 323.348 317.138C323.348 317.522 323.276 317.978 323.132 318.506C323.012 319.034 322.796 319.634 322.484 320.306C321.644 322.178 320.636 324.05 319.46 325.922C318.308 327.794 316.844 329.546 315.068 331.178C314.972 331.49 314.84 331.862 314.672 332.294C314.528 332.702 314.396 333.122 314.276 333.554C314.132 334.202 314.06 334.754 314.06 335.21C314.06 335.954 314.204 336.518 314.492 336.902C314.804 337.262 315.176 337.442 315.608 337.442C315.992 337.442 316.4 337.31 316.832 337.046C317.264 336.758 317.672 336.35 318.056 335.822C318.632 334.982 319.148 334.13 319.604 333.266C320.084 332.378 320.444 331.694 320.684 331.214C320.828 330.95 320.984 330.818 321.152 330.818C321.272 330.818 321.332 330.89 321.332 331.034C321.332 331.154 321.296 331.286 321.224 331.43C321.008 331.91 320.72 332.534 320.36 333.302C320.024 334.046 319.592 334.802 319.064 335.57C318.56 336.314 317.948 336.95 317.228 337.478C316.532 337.982 315.728 338.234 314.816 338.234ZM315.356 330.026C316.22 329.138 317.06 328.118 317.876 326.966C318.692 325.79 319.448 324.578 320.144 323.33C320.864 322.058 321.464 320.858 321.944 319.73C322.112 319.37 322.244 318.974 322.34 318.542C322.46 318.11 322.52 317.75 322.52 317.462C322.52 317.126 322.436 316.958 322.268 316.958C322.172 316.958 322.028 317.054 321.836 317.246C321.644 317.414 321.392 317.714 321.08 318.146C320.624 318.746 320.12 319.562 319.568 320.594C319.04 321.626 318.5 322.73 317.948 323.906C317.396 325.082 316.892 326.222 316.436 327.326C315.98 328.406 315.62 329.306 315.356 330.026Z" fill="black"/>
<path className="sh_7" d="M327.596 338.414C328.46 336.662 329.288 334.934 330.08 333.23C330.896 331.502 331.724 329.858 332.564 328.298C333.044 327.434 333.44 326.834 333.752 326.498C334.088 326.138 334.532 325.958 335.084 325.958C335.276 325.958 335.48 325.994 335.696 326.066C335.912 326.114 336.128 326.138 336.344 326.138C336.488 326.138 336.596 326.126 336.668 326.102C336.332 326.294 335.9 326.774 335.372 327.542C334.844 328.286 334.304 329.15 333.752 330.134C333.2 331.118 332.708 332.042 332.276 332.906C332.732 332.354 333.2 331.802 333.68 331.25C334.184 330.698 334.736 330.17 335.336 329.666C335.912 329.162 336.596 328.646 337.388 328.118C338.204 327.566 338.996 327.11 339.764 326.75C340.532 326.39 341.144 326.21 341.6 326.21C341.768 326.21 341.888 326.222 341.96 326.246C341.96 326.246 341.828 326.486 341.564 326.966C341.3 327.422 340.964 328.034 340.556 328.802C340.172 329.546 339.776 330.35 339.368 331.214C338.96 332.054 338.588 332.87 338.252 333.662C337.94 334.43 337.736 335.078 337.64 335.606C337.568 335.918 337.532 336.206 337.532 336.47C337.532 336.854 337.604 337.106 337.748 337.226C337.892 337.346 338.048 337.406 338.216 337.406C338.672 337.406 339.152 337.166 339.656 336.686C340.16 336.182 340.64 335.57 341.096 334.85C341.576 334.13 341.996 333.434 342.356 332.762C342.74 332.066 343.016 331.538 343.184 331.178C343.28 330.986 343.352 330.878 343.4 330.854C343.448 330.806 343.52 330.782 343.616 330.782C343.76 330.782 343.832 330.878 343.832 331.07C343.832 331.19 343.796 331.322 343.724 331.466C343.436 332.018 343.088 332.678 342.68 333.446C342.296 334.214 341.852 334.97 341.348 335.714C340.844 336.434 340.292 337.046 339.692 337.55C339.092 338.03 338.444 338.27 337.748 338.27C337.268 338.27 336.764 338.102 336.236 337.766C335.732 337.43 335.48 336.806 335.48 335.894C335.48 335.63 335.504 335.354 335.552 335.066C335.6 334.754 335.684 334.418 335.804 334.058C335.996 333.578 336.224 333.062 336.488 332.51C336.752 331.958 337.184 331.202 337.784 330.242C337.952 329.978 338.048 329.774 338.072 329.63C338.12 329.486 338.144 329.366 338.144 329.27C338.144 328.982 338.012 328.838 337.748 328.838C337.532 328.838 337.208 328.958 336.776 329.198C336.368 329.438 335.852 329.858 335.228 330.458C334.628 331.034 333.908 331.85 333.068 332.906C332.252 333.962 331.304 335.522 330.224 337.586C330.056 337.898 329.864 338.066 329.648 338.09C329.456 338.114 329.18 338.138 328.82 338.162C328.58 338.186 328.352 338.198 328.136 338.198C327.92 338.222 327.74 338.294 327.596 338.414Z" fill="black"/>
<path className="sh_8" d="M352.972 338.126C352.324 338.126 351.784 337.802 351.352 337.154C351.232 336.962 351.124 336.71 351.028 336.398C350.932 336.086 350.884 335.738 350.884 335.354C350.884 335.138 350.896 334.922 350.92 334.706C350.944 334.466 350.992 334.226 351.064 333.986C350.728 334.514 350.332 335.102 349.876 335.75C349.444 336.374 348.94 336.926 348.364 337.406C347.812 337.862 347.188 338.09 346.492 338.09C346.252 338.09 346 338.054 345.736 337.982C345.088 337.79 344.62 337.454 344.332 336.974C344.068 336.494 343.936 335.918 343.936 335.246C343.936 334.502 344.08 333.686 344.368 332.798C344.68 331.91 345.064 331.046 345.52 330.206C346 329.366 346.492 328.646 346.996 328.046C347.716 327.206 348.544 326.534 349.48 326.03C350.416 325.526 351.364 325.274 352.324 325.274C353.188 325.274 354.004 325.502 354.772 325.958C355.132 325.286 355.516 324.542 355.924 323.726C356.332 322.886 356.74 322.058 357.148 321.242C357.556 320.426 357.916 319.682 358.228 319.01C358.54 318.314 358.78 317.786 358.948 317.426C359.308 316.586 359.644 316.058 359.956 315.842C360.292 315.602 360.688 315.482 361.144 315.482C361.408 315.482 361.696 315.518 362.008 315.59C362.344 315.638 362.668 315.65 362.98 315.626C362.836 315.77 362.536 316.19 362.08 316.886C361.648 317.558 361.132 318.422 360.532 319.478C359.932 320.534 359.284 321.698 358.588 322.97C357.916 324.218 357.244 325.49 356.572 326.786C355.924 328.058 355.312 329.27 354.736 330.422C354.184 331.55 353.74 332.522 353.404 333.338C353.308 333.53 353.164 333.926 352.972 334.526C352.804 335.102 352.72 335.606 352.72 336.038C352.72 336.35 352.792 336.626 352.936 336.866C353.08 337.082 353.32 337.19 353.656 337.19C354.112 337.19 354.568 336.962 355.024 336.506C355.504 336.026 355.96 335.45 356.392 334.778C356.824 334.082 357.208 333.41 357.544 332.762C357.88 332.09 358.132 331.562 358.3 331.178C358.42 330.914 358.564 330.782 358.732 330.782C358.876 330.782 358.948 330.89 358.948 331.106C358.948 331.13 358.948 331.178 358.948 331.25C358.948 331.298 358.924 331.358 358.876 331.43C358.66 331.934 358.36 332.558 357.976 333.302C357.616 334.046 357.184 334.79 356.68 335.534C356.176 336.278 355.612 336.902 354.988 337.406C354.364 337.886 353.692 338.126 352.972 338.126ZM346.744 337.046C347.08 337.046 347.5 336.866 348.004 336.506C348.508 336.122 349.048 335.522 349.624 334.706C350.296 333.746 351.064 332.546 351.928 331.106C352.792 329.666 353.644 328.142 354.484 326.534C354.172 326.246 353.812 326.102 353.404 326.102C352.732 326.102 351.976 326.414 351.136 327.038C350.32 327.662 349.516 328.454 348.724 329.414C347.956 330.374 347.308 331.346 346.78 332.33C346.42 333.002 346.156 333.614 345.988 334.166C345.844 334.718 345.772 335.198 345.772 335.606C345.772 336.566 346.096 337.046 346.744 337.046Z" fill="black"/>
<path className="sh_9" d="M362.3 338.162C361.844 338.162 361.388 337.982 360.932 337.622C360.476 337.238 360.248 336.626 360.248 335.786C360.248 335.138 360.404 334.394 360.716 333.554C361.004 332.738 361.388 331.946 361.868 331.178C362.372 330.41 362.732 329.786 362.948 329.306C363.02 329.114 363.056 328.946 363.056 328.802C363.056 328.37 362.78 328.058 362.228 327.866C361.7 327.674 361.004 327.566 360.14 327.542L359.708 328.73C359.444 329.498 359.072 330.398 358.592 331.43C358.136 332.462 357.62 333.458 357.044 334.418C356.492 335.378 355.916 336.146 355.316 336.722C355.268 336.77 355.208 336.794 355.136 336.794C355.04 336.794 354.98 336.734 354.956 336.614C354.908 336.494 354.956 336.35 355.1 336.182C356.036 334.934 356.876 333.554 357.62 332.042C358.364 330.506 358.988 328.946 359.492 327.362C360.02 325.778 360.404 324.314 360.644 322.97C360.716 322.586 360.848 322.31 361.04 322.142C361.232 321.95 361.436 321.854 361.652 321.854C361.964 321.854 362.252 322.01 362.516 322.322C362.78 322.61 362.912 323.03 362.912 323.582C362.912 323.678 362.9 323.786 362.876 323.906C362.876 324.026 362.864 324.146 362.84 324.266C362.744 324.77 362.456 325.25 361.976 325.706C361.52 326.138 361.148 326.462 360.86 326.678C361.1 326.702 361.352 326.726 361.616 326.75C361.88 326.75 362.168 326.75 362.48 326.75C363.608 326.75 364.724 326.678 365.828 326.534C365.876 326.678 365.9 326.786 365.9 326.858C365.9 327.17 365.804 327.566 365.612 328.046C365.444 328.526 365.264 328.958 365.072 329.342C364.976 329.558 364.784 329.954 364.496 330.53C364.208 331.082 363.896 331.718 363.56 332.438C363.224 333.134 362.936 333.83 362.696 334.526C362.48 335.198 362.372 335.774 362.372 336.254C362.372 336.878 362.612 337.19 363.092 337.19C363.452 337.19 363.848 336.962 364.28 336.506C364.712 336.026 365.132 335.45 365.54 334.778C365.972 334.082 366.356 333.41 366.692 332.762C367.052 332.09 367.328 331.562 367.52 331.178C367.616 330.938 367.748 330.818 367.916 330.818C368.012 330.818 368.06 330.902 368.06 331.07C368.06 331.166 368.024 331.31 367.952 331.502C367.688 332.054 367.376 332.678 367.016 333.374C366.656 334.07 366.248 334.754 365.792 335.426C365.36 336.098 364.88 336.686 364.352 337.19C363.848 337.67 363.296 337.982 362.696 338.126C362.624 338.15 362.492 338.162 362.3 338.162Z" fill="black"/>
<path className="sh_10" d="M375.792 338.234C375.528 338.258 375.228 338.198 374.892 338.054C374.556 337.91 374.256 337.646 373.992 337.262C373.752 336.878 373.632 336.338 373.632 335.642C373.632 335.066 373.74 334.37 373.956 333.554C373.668 334.01 373.296 334.574 372.84 335.246C372.384 335.894 371.892 336.47 371.364 336.974C370.908 337.406 370.476 337.718 370.068 337.91C369.66 338.102 369.288 338.198 368.952 338.198C368.328 338.198 367.824 337.922 367.44 337.37C367.056 336.794 366.864 336.05 366.864 335.138C366.864 334.178 367.104 333.086 367.584 331.862C368.064 330.638 368.844 329.366 369.924 328.046C370.62 327.206 371.46 326.534 372.444 326.03C373.452 325.502 374.436 325.238 375.396 325.238C375.948 325.238 376.476 325.334 376.98 325.526C377.484 325.694 377.928 325.982 378.312 326.39C378.48 326.558 378.564 326.75 378.564 326.966C378.564 327.11 378.504 327.23 378.384 327.326C378.264 327.422 378.108 327.446 377.916 327.398C377.652 326.558 377.088 326.138 376.224 326.138C375.816 326.138 375.348 326.27 374.82 326.534C374.004 326.966 373.152 327.674 372.264 328.658C371.4 329.642 370.644 330.662 369.996 331.718C369.9 331.862 369.744 332.138 369.528 332.546C369.336 332.954 369.144 333.41 368.952 333.914C368.76 334.418 368.628 334.91 368.556 335.39C368.532 335.534 368.52 335.642 368.52 335.714C368.52 335.762 368.52 335.846 368.52 335.966C368.52 336.758 368.82 337.154 369.42 337.154C370.14 337.154 370.956 336.626 371.868 335.57C372.492 334.802 373.056 333.998 373.56 333.158C374.064 332.318 374.58 331.418 375.108 330.458C375.468 329.81 375.804 329.27 376.116 328.838C376.428 328.406 376.872 328.19 377.448 328.19C377.712 328.19 377.976 328.226 378.24 328.298C378.504 328.37 378.78 328.382 379.068 328.334C378.876 328.526 378.612 328.886 378.276 329.414C377.964 329.942 377.628 330.542 377.268 331.214C376.908 331.886 376.584 332.57 376.296 333.266C376.008 333.962 375.804 334.562 375.684 335.066C375.66 335.21 375.624 335.414 375.576 335.678C375.552 335.942 375.54 336.134 375.54 336.254C375.54 336.926 375.732 337.262 376.116 337.262C376.5 337.262 376.908 337.034 377.34 336.578C377.796 336.122 378.24 335.558 378.672 334.886C379.104 334.214 379.5 333.542 379.86 332.87C380.22 332.174 380.508 331.61 380.724 331.178C380.82 330.938 380.964 330.818 381.156 330.818C381.276 330.818 381.336 330.902 381.336 331.07C381.336 331.142 381.3 331.274 381.228 331.466C380.94 332.066 380.592 332.75 380.184 333.518C379.776 334.262 379.332 334.994 378.852 335.714C378.372 336.41 377.868 336.998 377.34 337.478C376.836 337.934 376.32 338.186 375.792 338.234Z" fill="black"/>
<path className="sh_6" d="M324.572 338.27C323.684 338.27 322.88 337.982 322.16 337.406C321.464 336.83 321.116 335.954 321.116 334.778C321.116 333.698 321.38 332.546 321.908 331.322C322.436 330.074 323.108 328.982 323.924 328.046C324.62 327.23 325.4 326.558 326.264 326.03C327.128 325.502 327.944 325.238 328.712 325.238C329.24 325.238 329.696 325.382 330.08 325.67C330.488 325.982 330.692 326.426 330.692 327.002C330.692 327.602 330.464 328.262 330.008 328.982C329.552 329.702 328.904 330.374 328.064 330.998C327.704 331.262 327.248 331.514 326.696 331.754C326.144 331.994 325.592 332.198 325.04 332.366C324.488 332.51 324.032 332.582 323.672 332.582C323.552 332.87 323.432 333.254 323.312 333.734C323.216 334.214 323.168 334.706 323.168 335.21C323.168 335.81 323.288 336.35 323.528 336.83C323.768 337.31 324.212 337.55 324.86 337.55C325.652 337.55 326.372 337.322 327.02 336.866C327.668 336.41 328.244 335.846 328.748 335.174C329.252 334.478 329.672 333.782 330.008 333.086C330.368 332.39 330.656 331.802 330.872 331.322C331.016 330.986 331.208 330.818 331.448 330.818C331.568 330.818 331.628 330.878 331.628 330.998C331.628 331.094 331.592 331.214 331.52 331.358C331.184 332.078 330.824 332.846 330.44 333.662C330.056 334.454 329.6 335.21 329.072 335.93C328.544 336.626 327.908 337.19 327.164 337.622C326.444 338.054 325.58 338.27 324.572 338.27ZM323.924 331.934C324.26 331.934 324.824 331.814 325.616 331.574C326.408 331.31 327.128 330.902 327.776 330.35C328.4 329.798 328.88 329.198 329.216 328.55C329.552 327.878 329.72 327.314 329.72 326.858C329.72 326.33 329.528 326.066 329.144 326.066C328.856 326.066 328.46 326.258 327.956 326.642C327.452 327.026 326.828 327.674 326.084 328.586C325.628 329.162 325.196 329.786 324.788 330.458C324.38 331.13 324.092 331.622 323.924 331.934Z" fill="black"/>
<path className="k_1" d="M162.984 344.786C161.664 344.786 160.44 344.486 159.312 343.886C158.208 343.286 157.224 342.47 156.36 341.438C155.496 340.43 154.776 339.29 154.2 338.018C153.72 336.938 153.324 335.846 153.012 334.742C152.724 333.638 152.508 332.606 152.364 331.646C152.22 330.686 152.148 329.894 152.148 329.27C152.148 328.502 152.232 328.07 152.4 327.974C152.856 328.022 153.612 327.83 154.668 327.398C155.748 326.966 157.02 326.33 158.484 325.49C159.972 324.65 161.568 323.642 163.272 322.466C165 321.266 166.728 319.922 168.456 318.434C170.208 316.946 171.888 315.338 173.496 313.61C175.104 311.882 176.52 310.07 177.744 308.174C178.032 307.718 178.308 307.49 178.572 307.49C178.788 307.49 178.896 307.622 178.896 307.886C178.896 308.102 178.812 308.342 178.644 308.606C177.492 310.526 176.124 312.41 174.54 314.258C172.956 316.082 171.264 317.798 169.464 319.406C167.664 321.014 165.852 322.466 164.028 323.762C162.228 325.058 160.5 326.138 158.844 327.002C157.212 327.866 155.772 328.454 154.524 328.766C154.452 328.718 154.416 328.838 154.416 329.126C154.416 329.534 154.5 330.194 154.668 331.106C154.836 331.994 155.088 333.014 155.424 334.166C155.784 335.294 156.216 336.446 156.72 337.622C157.488 339.422 158.4 340.802 159.456 341.762C160.536 342.746 161.772 343.238 163.164 343.238C164.1 343.238 165.06 343.094 166.044 342.806C167.028 342.542 167.928 342.122 168.744 341.546C169.56 340.994 170.196 340.286 170.652 339.422C170.796 339.086 170.964 338.918 171.156 338.918C171.252 338.918 171.3 338.99 171.3 339.134C171.3 339.302 171.24 339.494 171.12 339.71C170.688 340.598 170.028 341.426 169.14 342.194C168.252 342.962 167.256 343.586 166.152 344.066C165.072 344.546 164.016 344.786 162.984 344.786ZM132.528 344.318C130.896 344.318 129.312 344.09 127.776 343.634C126.264 343.202 124.896 342.554 123.672 341.69C122.472 340.826 121.512 339.77 120.792 338.522C120.096 337.274 119.748 335.858 119.748 334.274C119.748 333.842 119.784 333.398 119.856 332.942C119.928 332.462 120.024 331.97 120.144 331.466C120.384 330.602 120.768 329.858 121.296 329.234C121.848 328.586 122.412 328.082 122.988 327.722C123.564 327.338 123.996 327.134 124.284 327.11H124.392C124.632 327.11 124.752 327.182 124.752 327.326C124.752 327.446 124.692 327.542 124.572 327.614C124.356 327.71 123.984 327.986 123.456 328.442C122.952 328.874 122.448 329.486 121.944 330.278C121.44 331.046 121.116 331.97 120.972 333.05C120.9 333.506 120.864 333.938 120.864 334.346C120.864 335.786 121.176 337.022 121.8 338.054C122.424 339.062 123.24 339.89 124.248 340.538C125.256 341.186 126.36 341.654 127.56 341.942C128.76 342.254 129.936 342.41 131.088 342.41C131.544 342.41 131.988 342.386 132.42 342.338C132.852 342.314 133.26 342.254 133.644 342.158C136.236 341.582 138.48 340.658 140.376 339.386C142.296 338.114 143.952 336.65 145.344 334.994C146.736 333.338 147.912 331.634 148.872 329.882C149.856 328.13 150.684 326.486 151.356 324.95C151.5 324.59 151.74 324.026 152.076 323.258C152.436 322.49 152.832 321.614 153.264 320.63C153.72 319.646 154.176 318.65 154.632 317.642C155.112 316.634 155.544 315.71 155.928 314.87C156.312 314.03 156.624 313.382 156.864 312.926C155.256 313.118 153.516 313.298 151.644 313.466C149.796 313.61 148.032 313.922 146.352 314.402C144.48 314.93 142.944 315.698 141.744 316.706C140.568 317.714 139.692 318.818 139.116 320.018C138.564 321.218 138.288 322.358 138.288 323.438C138.288 324.614 138.588 325.598 139.188 326.39C139.788 327.182 140.616 327.578 141.672 327.578C142.2 327.578 142.764 327.47 143.364 327.254C144.06 327.014 144.636 326.594 145.092 325.994C145.548 325.37 145.884 324.674 146.1 323.906C146.34 323.114 146.46 322.358 146.46 321.638C146.46 321.254 146.424 320.882 146.352 320.522V320.45C146.352 320.354 146.4 320.306 146.496 320.306C146.688 320.306 146.856 320.45 147 320.738C147.12 320.978 147.192 321.242 147.216 321.53C147.264 321.794 147.288 322.058 147.288 322.322C147.288 323.09 147.12 323.858 146.784 324.626C146.448 325.37 146.004 326.042 145.452 326.642C144.9 327.242 144.276 327.674 143.58 327.938C143.196 328.082 142.824 328.19 142.464 328.262C142.104 328.31 141.756 328.334 141.42 328.334C140.388 328.334 139.464 328.07 138.648 327.542C137.856 326.99 137.232 326.27 136.776 325.382C136.344 324.494 136.128 323.534 136.128 322.502C136.128 321.326 136.452 320.138 137.1 318.938C137.748 317.714 138.792 316.61 140.232 315.626C141.672 314.618 143.568 313.85 145.92 313.322C147.888 312.89 149.892 312.614 151.932 312.494C153.972 312.35 155.772 312.206 157.332 312.062C157.428 311.918 157.62 311.642 157.908 311.234C158.22 310.826 158.568 310.418 158.952 310.01C159.36 309.578 159.756 309.302 160.14 309.182C160.404 309.11 160.632 309.074 160.824 309.074C161.256 309.074 161.592 309.194 161.832 309.434C162.096 309.674 162.228 309.962 162.228 310.298C162.228 310.778 161.892 311.294 161.22 311.846C160.572 312.374 159.468 312.722 157.908 312.89C157.14 314.306 156.432 315.878 155.784 317.606C155.136 319.31 154.488 321.098 153.84 322.97C153.216 324.818 152.52 326.678 151.752 328.55C151.008 330.398 150.156 332.186 149.196 333.914C148.236 335.618 147.096 337.178 145.776 338.594C144.48 340.01 142.944 341.198 141.168 342.158C139.416 343.118 137.376 343.778 135.048 344.138C134.64 344.186 134.22 344.222 133.788 344.246C133.356 344.294 132.936 344.318 132.528 344.318ZM158.592 311.99C159.336 311.87 159.864 311.726 160.176 311.558C160.512 311.366 160.752 311.174 160.896 310.982C161.064 310.79 161.148 310.622 161.148 310.478C161.148 310.238 161.028 310.118 160.788 310.118C160.572 310.118 160.308 310.238 159.996 310.478C159.756 310.646 159.504 310.886 159.24 311.198C158.976 311.51 158.76 311.774 158.592 311.99Z" fill="black"/>
<path className="k_2" d="M173.168 338.126C172.904 338.126 172.58 338.066 172.196 337.946C171.836 337.826 171.512 337.61 171.224 337.298C170.96 336.962 170.828 336.47 170.828 335.822C170.828 335.198 170.972 334.598 171.26 334.022C171.572 333.422 171.86 332.846 172.124 332.294C172.052 332.294 171.968 332.27 171.872 332.222C171.8 332.174 171.764 332.102 171.764 332.006C171.764 331.91 171.788 331.814 171.836 331.718C171.932 331.526 172.04 331.322 172.16 331.106C172.28 330.89 172.388 330.662 172.484 330.422C172.844 329.678 173.204 328.97 173.564 328.298C173.924 327.602 174.236 326.99 174.5 326.462C174.764 325.934 175.22 325.67 175.868 325.67H178.1C177.692 325.982 177.32 326.33 176.984 326.714C176.672 327.074 176.276 327.746 175.796 328.73C175.796 328.73 175.712 328.898 175.544 329.234C175.376 329.57 175.16 330.002 174.896 330.53C174.656 331.034 174.404 331.55 174.14 332.078C173.9 332.606 173.696 333.05 173.528 333.41C173.216 334.082 173.012 334.622 172.916 335.03C172.82 335.414 172.772 335.774 172.772 336.11C172.772 336.902 173.036 337.298 173.564 337.298C174.14 337.298 174.836 336.83 175.652 335.894C176.324 335.102 176.984 334.154 177.632 333.05C178.28 331.946 178.892 330.806 179.468 329.63C180.068 328.454 180.596 327.398 181.052 326.462C181.316 325.934 181.784 325.67 182.456 325.67H184.436C184.076 325.958 183.776 326.234 183.536 326.498C183.296 326.738 183.056 327.074 182.816 327.506C182.6 327.914 182.3 328.502 181.916 329.27C181.604 329.918 181.268 330.614 180.908 331.358C180.572 332.078 180.272 332.762 180.008 333.41C179.744 334.058 179.576 334.586 179.504 334.994C179.48 335.234 179.456 335.414 179.432 335.534C179.408 335.654 179.396 335.786 179.396 335.93C179.396 336.386 179.468 336.71 179.612 336.902C179.78 337.094 179.972 337.19 180.188 337.19C180.764 337.19 181.34 336.866 181.916 336.218C182.516 335.57 183.08 334.778 183.608 333.842C184.16 332.906 184.628 332.018 185.012 331.178C185.156 330.914 185.288 330.782 185.408 330.782C185.552 330.782 185.624 330.866 185.624 331.034C185.624 331.154 185.576 331.298 185.48 331.466C185.216 332.042 184.892 332.702 184.508 333.446C184.124 334.19 183.692 334.922 183.212 335.642C182.732 336.362 182.204 336.962 181.628 337.442C181.052 337.898 180.428 338.126 179.756 338.126C179.156 338.126 178.664 337.91 178.28 337.478C177.896 337.022 177.704 336.386 177.704 335.57C177.704 334.922 177.824 334.226 178.064 333.482C177.656 334.202 177.188 334.922 176.66 335.642C176.132 336.362 175.568 336.962 174.968 337.442C174.368 337.898 173.768 338.126 173.168 338.126Z" fill="black"/>
<path className="k_3" d="M185.632 338.306C186.52 336.602 187.36 334.898 188.152 333.194C188.944 331.466 189.748 329.834 190.564 328.298C191.044 327.434 191.44 326.834 191.752 326.498C192.088 326.138 192.532 325.958 193.084 325.958C193.276 325.958 193.48 325.994 193.696 326.066C193.912 326.114 194.128 326.138 194.344 326.138C194.488 326.138 194.596 326.126 194.668 326.102C194.332 326.294 193.9 326.774 193.372 327.542C192.844 328.286 192.304 329.15 191.752 330.134C191.2 331.118 190.708 332.042 190.276 332.906C190.732 332.354 191.2 331.802 191.68 331.25C192.184 330.698 192.736 330.17 193.336 329.666C193.864 329.21 194.416 328.718 194.992 328.19C195.592 327.638 196.18 327.17 196.756 326.786C197.332 326.402 197.836 326.21 198.268 326.21C198.436 326.21 198.544 326.222 198.592 326.246C199.048 326.438 199.276 326.75 199.276 327.182C199.276 327.326 199.216 327.542 199.096 327.83C198.784 328.646 198.376 329.486 197.872 330.35C197.392 331.19 196.936 332.042 196.504 332.906C196.864 332.474 197.308 331.946 197.836 331.322C198.388 330.698 198.94 330.146 199.492 329.666C200.02 329.186 200.692 328.682 201.508 328.154C202.324 327.626 203.128 327.17 203.92 326.786C204.712 326.402 205.348 326.21 205.828 326.21C205.996 326.21 206.116 326.222 206.188 326.246C206.188 326.246 206.056 326.486 205.792 326.966C205.528 327.422 205.192 328.034 204.784 328.802C204.4 329.546 204.004 330.35 203.596 331.214C203.188 332.054 202.816 332.87 202.48 333.662C202.168 334.43 201.964 335.078 201.868 335.606C201.796 335.918 201.76 336.206 201.76 336.47C201.76 336.854 201.832 337.106 201.976 337.226C202.12 337.346 202.276 337.406 202.444 337.406C202.924 337.406 203.416 337.154 203.92 336.65C204.424 336.146 204.904 335.546 205.36 334.85C205.84 334.13 206.26 333.434 206.62 332.762C206.98 332.066 207.244 331.538 207.412 331.178C207.556 330.914 207.7 330.782 207.844 330.782C207.988 330.782 208.06 330.878 208.06 331.07C208.06 331.19 208.024 331.322 207.952 331.466C207.664 332.018 207.316 332.678 206.908 333.446C206.524 334.214 206.08 334.97 205.576 335.714C205.072 336.434 204.508 337.046 203.884 337.55C203.284 338.03 202.636 338.27 201.94 338.27C201.436 338.27 200.92 338.102 200.392 337.766C199.888 337.43 199.636 336.806 199.636 335.894C199.636 335.39 199.744 334.778 199.96 334.058C200.128 333.578 200.38 333.026 200.716 332.402C201.076 331.778 201.508 331.058 202.012 330.242C202.252 329.834 202.372 329.51 202.372 329.27C202.372 328.982 202.228 328.838 201.94 328.838C201.7 328.838 201.364 328.958 200.932 329.198C200.524 329.438 200.008 329.858 199.384 330.458C199 330.818 198.544 331.322 198.016 331.97C197.512 332.594 196.996 333.278 196.468 334.022C195.94 334.766 195.484 335.498 195.1 336.218C194.716 336.938 194.464 337.574 194.344 338.126C193.984 338.126 193.696 337.982 193.48 337.694C193.264 337.382 193.156 337.022 193.156 336.614C193.156 336.542 193.156 336.47 193.156 336.398C193.156 336.326 193.168 336.242 193.192 336.146C193.312 335.402 193.504 334.706 193.768 334.058C194.032 333.41 194.332 332.738 194.668 332.042C194.932 331.538 195.196 330.998 195.46 330.422C195.724 329.822 195.856 329.366 195.856 329.054C195.856 328.862 195.784 328.766 195.64 328.766C195.472 328.766 195.196 328.898 194.812 329.162C194.428 329.402 193.9 329.834 193.228 330.458C192.628 331.034 191.896 331.862 191.032 332.942C190.192 334.022 189.268 335.558 188.26 337.55C188.116 337.814 187.948 337.982 187.756 338.054C187.564 338.102 187.264 338.126 186.856 338.126C186.592 338.126 186.376 338.126 186.208 338.126C186.016 338.15 185.824 338.21 185.632 338.306Z" fill="black"/>
<path className="k_4" d="M215.792 338.234C215.528 338.258 215.228 338.198 214.892 338.054C214.556 337.91 214.256 337.646 213.992 337.262C213.752 336.878 213.632 336.338 213.632 335.642C213.632 335.066 213.74 334.37 213.956 333.554C213.668 334.01 213.296 334.574 212.84 335.246C212.384 335.894 211.892 336.47 211.364 336.974C210.908 337.406 210.476 337.718 210.068 337.91C209.66 338.102 209.288 338.198 208.952 338.198C208.328 338.198 207.824 337.922 207.44 337.37C207.056 336.794 206.864 336.05 206.864 335.138C206.864 334.178 207.104 333.086 207.584 331.862C208.064 330.638 208.844 329.366 209.924 328.046C210.62 327.206 211.46 326.534 212.444 326.03C213.452 325.502 214.436 325.238 215.396 325.238C215.948 325.238 216.476 325.334 216.98 325.526C217.484 325.694 217.928 325.982 218.312 326.39C218.48 326.558 218.564 326.75 218.564 326.966C218.564 327.11 218.504 327.23 218.384 327.326C218.264 327.422 218.108 327.446 217.916 327.398C217.652 326.558 217.088 326.138 216.224 326.138C215.816 326.138 215.348 326.27 214.82 326.534C214.004 326.966 213.152 327.674 212.264 328.658C211.4 329.642 210.644 330.662 209.996 331.718C209.9 331.862 209.744 332.138 209.528 332.546C209.336 332.954 209.144 333.41 208.952 333.914C208.76 334.418 208.628 334.91 208.556 335.39C208.532 335.534 208.52 335.642 208.52 335.714C208.52 335.762 208.52 335.846 208.52 335.966C208.52 336.758 208.82 337.154 209.42 337.154C210.14 337.154 210.956 336.626 211.868 335.57C212.492 334.802 213.056 333.998 213.56 333.158C214.064 332.318 214.58 331.418 215.108 330.458C215.468 329.81 215.804 329.27 216.116 328.838C216.428 328.406 216.872 328.19 217.448 328.19C217.712 328.19 217.976 328.226 218.24 328.298C218.504 328.37 218.78 328.382 219.068 328.334C218.876 328.526 218.612 328.886 218.276 329.414C217.964 329.942 217.628 330.542 217.268 331.214C216.908 331.886 216.584 332.57 216.296 333.266C216.008 333.962 215.804 334.562 215.684 335.066C215.66 335.21 215.624 335.414 215.576 335.678C215.552 335.942 215.54 336.134 215.54 336.254C215.54 336.926 215.732 337.262 216.116 337.262C216.5 337.262 216.908 337.034 217.34 336.578C217.796 336.122 218.24 335.558 218.672 334.886C219.104 334.214 219.5 333.542 219.86 332.87C220.22 332.174 220.508 331.61 220.724 331.178C220.82 330.938 220.964 330.818 221.156 330.818C221.276 330.818 221.336 330.902 221.336 331.07C221.336 331.142 221.3 331.274 221.228 331.466C220.94 332.066 220.592 332.75 220.184 333.518C219.776 334.262 219.332 334.994 218.852 335.714C218.372 336.41 217.868 336.998 217.34 337.478C216.836 337.934 216.32 338.186 215.792 338.234Z" fill="black"/>
<path className="k_5" d="M226.3 338.162C225.844 338.162 225.388 337.982 224.932 337.622C224.476 337.238 224.248 336.626 224.248 335.786C224.248 335.138 224.404 334.394 224.716 333.554C225.004 332.738 225.388 331.946 225.868 331.178C226.372 330.41 226.732 329.786 226.948 329.306C227.02 329.114 227.056 328.946 227.056 328.802C227.056 328.37 226.78 328.058 226.228 327.866C225.7 327.674 225.004 327.566 224.14 327.542L223.708 328.73C223.444 329.498 223.072 330.398 222.592 331.43C222.136 332.462 221.62 333.458 221.044 334.418C220.492 335.378 219.916 336.146 219.316 336.722C219.268 336.77 219.208 336.794 219.136 336.794C219.04 336.794 218.98 336.734 218.956 336.614C218.908 336.494 218.956 336.35 219.1 336.182C220.036 334.934 220.876 333.554 221.62 332.042C222.364 330.506 222.988 328.946 223.492 327.362C224.02 325.778 224.404 324.314 224.644 322.97C224.716 322.586 224.848 322.31 225.04 322.142C225.232 321.95 225.436 321.854 225.652 321.854C225.964 321.854 226.252 322.01 226.516 322.322C226.78 322.61 226.912 323.03 226.912 323.582C226.912 323.678 226.9 323.786 226.876 323.906C226.876 324.026 226.864 324.146 226.84 324.266C226.744 324.77 226.456 325.25 225.976 325.706C225.52 326.138 225.148 326.462 224.86 326.678C225.1 326.702 225.352 326.726 225.616 326.75C225.88 326.75 226.168 326.75 226.48 326.75C227.608 326.75 228.724 326.678 229.828 326.534C229.876 326.678 229.9 326.786 229.9 326.858C229.9 327.17 229.804 327.566 229.612 328.046C229.444 328.526 229.264 328.958 229.072 329.342C228.976 329.558 228.784 329.954 228.496 330.53C228.208 331.082 227.896 331.718 227.56 332.438C227.224 333.134 226.936 333.83 226.696 334.526C226.48 335.198 226.372 335.774 226.372 336.254C226.372 336.878 226.612 337.19 227.092 337.19C227.452 337.19 227.848 336.962 228.28 336.506C228.712 336.026 229.132 335.45 229.54 334.778C229.972 334.082 230.356 333.41 230.692 332.762C231.052 332.09 231.328 331.562 231.52 331.178C231.616 330.938 231.748 330.818 231.916 330.818C232.012 330.818 232.06 330.902 232.06 331.07C232.06 331.166 232.024 331.31 231.952 331.502C231.688 332.054 231.376 332.678 231.016 333.374C230.656 334.07 230.248 334.754 229.792 335.426C229.36 336.098 228.88 336.686 228.352 337.19C227.848 337.67 227.296 337.982 226.696 338.126C226.624 338.15 226.492 338.162 226.3 338.162Z" fill="black"/>
</svg>
